<svg width="170" height="81" viewBox="0 0 170 81" fill="none" xmlns="http://www.w3.org/2000/svg">
<path d="M8.97321 79.4785C8.78854 78.9669 9.04948 78.0109 9.75605 76.6104C10.4705 75.2627 11.4738 73.6829 12.7657 71.871C14.1183 70.1039 15.674 68.2524 17.4327 66.3165C19.1994 64.4333 21.061 62.6438 23.0175 60.9478C23.993 59.1834 24.9316 57.5324 25.8333 55.9948C26.7271 54.4045 27.5576 52.9315 28.3248 51.5759C25.9121 53.8257 23.5126 55.8039 21.1262 57.5105C18.7398 59.2171 16.6249 60.3975 14.7816 61.0518C12.3213 61.9066 10.495 61.7763 9.30288 60.6609C9.30288 60.6609 9.27255 60.6385 9.21189 60.5937C8.16736 59.0247 7.80316 57.1379 8.11932 54.9332C8.43547 52.7285 9.19202 50.4037 10.3889 47.9589C11.6307 45.4534 13.1889 42.9004 15.0636 40.2999C16.991 37.6915 19.0213 35.2294 21.1544 32.9137C22.9579 30.9171 24.8604 29.0405 26.8618 27.2839C28.8552 25.4745 30.7564 23.9486 32.5653 22.7063C34.3742 21.4639 36.0197 20.5697 37.5017 20.0236C38.9837 19.4775 40.1678 19.4615 41.054 19.9756C41.4021 20.1391 41.6382 20.4542 41.7622 20.921C41.881 21.7121 41.5989 22.887 40.9161 24.4456C40.2333 26.0043 39.2802 27.7384 38.0568 29.6478C36.8862 31.5494 35.5653 33.5275 34.094 35.582C32.6755 37.6287 31.2939 39.5619 29.9492 41.3817C28.6493 43.1409 27.5024 44.6614 26.5083 45.9432C25.5143 47.225 24.8564 48.0518 24.5348 48.4237C24.3634 48.7191 24.126 48.7547 23.8227 48.5306C23.5643 48.2458 23.555 48.0045 23.7949 47.8067C24.9762 46.335 26.2168 44.7196 27.5166 42.9604C28.8693 41.1933 30.1955 39.4302 31.4954 37.671C32.7873 35.8591 34.0041 34.0854 35.1458 32.35C36.3402 30.6067 37.3658 28.9966 38.2227 27.5196C39.0796 26.0427 39.7229 24.7596 40.1526 23.6704C40.6271 22.5206 40.8248 21.6819 40.7456 21.1545C40.7139 20.9435 40.6453 20.846 40.5398 20.8618C39.8884 20.4742 38.9272 20.5376 37.6561 21.0521C36.3772 21.5137 34.9084 22.3275 33.2498 23.4934C31.5832 24.6065 29.7757 26.0374 27.827 27.7861C25.8784 29.5348 23.9311 31.4721 21.9852 33.5979C19.9865 35.7317 18.0683 38.0421 16.2306 40.5292C14.3928 43.0163 12.8451 45.4598 11.5875 47.8598C10.3827 50.2519 9.59184 52.5279 9.21503 54.6878C8.83029 56.7949 9.12194 58.5578 10.09 59.9765C10.9023 60.7174 12.366 60.7673 14.4809 60.1262C15.5568 59.7489 16.7368 59.1673 18.021 58.3812C19.3052 57.5952 20.6224 56.6693 21.9724 55.6037C23.3753 54.5302 24.7662 53.3776 26.1453 52.1458C27.5771 50.9062 28.9746 49.6177 30.3378 48.2805C32.0595 45.3794 33.528 42.9477 34.7435 40.9855C36.0038 38.9626 37.0518 37.3221 37.8876 36.0641C38.7762 34.7981 39.4973 33.8539 40.051 33.2315C40.5968 32.5563 41.0121 32.0895 41.2969 31.831C41.6265 31.5118 41.8744 31.3667 42.0405 31.3957C42.1988 31.372 42.3346 31.3786 42.448 31.4155C42.7882 31.5262 42.9596 31.7701 42.9623 32.1472C42.9571 32.4716 42.94 32.7168 42.911 32.883C42.7661 33.7137 42.3548 34.7462 41.6772 35.9805C41.0445 37.1541 40.1902 38.4689 39.1145 39.9247C38.0835 41.3199 36.8759 42.7956 35.4916 44.3517C34.1073 45.9078 32.6399 47.4495 31.0895 48.9766C30.2247 50.4008 29.3006 51.9687 28.3172 53.6804C27.3258 55.3393 26.2791 57.1683 25.1771 59.1674C25.9945 58.5054 26.8199 57.8961 27.6531 57.3395C28.5391 56.775 29.4106 56.2936 30.2677 55.8953C30.5683 55.7423 30.7951 55.8161 30.9481 56.1167C31.1011 56.4173 31.0273 56.6441 30.7267 56.7971C29.5769 57.4012 28.4167 58.1147 27.2459 58.9377C26.0672 59.7079 24.9267 60.5533 23.8245 61.4738C23.5187 61.9512 23.2168 62.4549 22.9189 62.985C22.6737 63.5072 22.4021 64.0334 22.1042 64.5635L20.5618 67.2219C19.6681 68.8123 18.7927 70.3459 17.9359 71.8228C17.0869 73.3525 16.2102 74.6976 15.3059 75.8581C14.4621 77.0634 13.6131 78.0537 12.7588 78.8292C11.9044 79.6046 11.0553 80.0557 10.2115 80.1824C9.57855 80.2774 9.1658 80.0428 8.97321 79.4785ZM21.2181 64.0493C21.255 63.9359 21.2734 63.8792 21.2734 63.8792C21.3182 63.8186 21.3591 63.7315 21.396 63.6181C19.748 65.2139 18.187 66.8504 16.7131 68.5279C15.2919 70.1974 14.0698 71.7561 13.0468 73.2041C12.0317 74.7048 11.2262 75.9852 10.6303 77.0454C10.0872 78.0977 9.86975 78.8045 9.97793 79.1658L10.057 79.1539C10.7954 79.0431 11.5654 78.6039 12.367 77.8363C13.1686 77.0688 13.9688 76.1127 14.7678 74.9681C15.5667 73.8235 16.3721 72.543 17.1842 71.1267C18.049 69.7025 18.8834 68.2559 19.6876 66.7869C19.9407 66.3175 20.1938 65.848 20.4469 65.3786C20.7079 64.9619 20.965 64.5188 21.2181 64.0493ZM41.8904 32.5508C41.7032 32.7407 41.4263 33.052 41.0598 33.4845C40.6933 33.9171 40.1778 34.6147 39.5134 35.5773C38.841 36.4872 38.0276 37.7149 37.0732 39.2604C36.1108 40.7532 34.9362 42.6284 33.5494 44.886C35.8698 42.3804 37.7801 40.0172 39.2803 37.7965C40.8333 35.5679 41.7152 33.8984 41.926 32.7882L41.8904 32.5508ZM60.7827 67.0077C60.6614 66.918 60.5018 66.7532 60.304 66.5133C60.1668 66.3181 60.1035 65.8962 60.114 65.2475C60.1772 64.5908 60.359 63.6467 60.6595 62.4151C61.0206 61.2283 61.5821 59.58 62.3439 57.4701C63.1585 55.3524 64.2486 52.7349 65.6142 49.6175C66.9719 46.4475 68.7436 42.622 70.9292 38.1412C71.264 37.4977 71.5724 36.8581 71.8545 36.2225C72.1366 35.5869 72.4451 34.9474 72.7799 34.3039C71.4748 36.3874 70.1315 38.3958 68.7498 40.329C67.3682 42.2622 66.0077 43.9766 64.6682 45.4721C63.3288 46.9675 62.0328 48.2137 60.7803 49.2108C59.5198 50.155 58.3622 50.7064 57.3073 50.8648L57.2282 50.8766C56.1206 51.0429 55.1475 51.0272 54.3089 50.8296C53.523 50.624 52.8346 50.3498 52.2439 50.0071C51.6531 49.6643 51.1678 49.3057 50.788 48.9313C50.4003 48.5041 50.0996 48.1178 49.8859 47.7724C49.6697 48.1284 49.356 48.5531 48.9446 49.0463C48.5781 49.4788 48.1853 49.9153 47.766 50.3558C47.3468 50.7963 46.8972 51.2143 46.4173 51.6099C45.9822 51.9449 45.58 52.1401 45.2109 52.1956C44.8944 52.2431 44.5845 52.1548 44.2812 51.9307C43.6139 51.4376 43.3752 50.7454 43.5649 49.854C43.7415 49.2342 44.1331 48.6092 44.7395 47.9788C45.3908 47.2878 46.1384 46.8789 46.9823 46.7522C47.5624 46.6651 48.045 46.6466 48.4301 46.6966C48.8151 46.7467 49.121 46.8086 49.3478 46.8824C49.3847 46.769 49.448 46.6517 49.5376 46.5303C49.7328 46.3932 49.9095 46.3127 50.0677 46.289C50.2945 46.3628 50.4198 46.4788 50.4435 46.637C50.4514 46.6898 50.5662 46.9152 50.7878 47.3134C51.0094 47.7116 51.3707 48.1427 51.8718 48.6068C52.4178 49.0102 53.0916 49.3674 53.8934 49.6785C54.7478 49.9817 55.808 50.0382 57.0738 49.8482L57.1529 49.8363C58.2078 49.6779 59.3839 49.0699 60.6812 48.0122C61.9706 46.9018 63.2995 45.5158 64.668 43.8542C66.0892 42.1846 67.5051 40.3002 68.9157 38.2008C70.379 36.0935 71.7817 33.9414 73.1237 31.7444C74.5185 29.5396 75.8117 27.3769 77.0034 25.2565C78.2399 23.0754 79.342 21.0762 80.3096 19.2591C81.4406 17.0938 82.341 15.3677 83.0106 14.0807C83.7251 12.733 84.1087 12.0552 84.1615 12.0473L84.1496 11.9681C84.2023 11.9602 84.2247 11.9299 84.2168 11.8771L84.2959 11.8653C84.288 11.8125 84.3104 11.7822 84.3632 11.7743L84.4423 11.7624L84.5214 11.7505L84.6005 11.7386L84.6796 11.7268L84.6915 11.8059L84.7706 11.794L84.8497 11.7821L84.8616 11.8612L84.9407 11.8494L84.9526 11.9285C85.0053 11.9206 85.0357 11.943 85.0436 11.9957L85.0555 12.0748L85.0673 12.1539L85.0792 12.233L85.0911 12.3122L85.103 12.3913C85.0502 12.3992 85.0278 12.4295 85.0357 12.4823C84.9619 12.7091 84.5493 13.553 83.7979 15.0141C83.0914 16.4145 82.1462 18.2014 80.9624 20.3745C79.7127 22.8273 78.2772 25.6585 76.6558 28.8681C75.0792 32.0171 73.4657 35.2795 71.8153 38.6553C69.8459 42.7801 68.1929 46.3181 66.8563 49.2693C65.5724 52.2125 64.5192 54.7166 63.6967 56.7817C62.919 58.786 62.3496 60.3816 61.9885 61.5684C61.6353 62.8079 61.4007 63.7599 61.2847 64.4245C61.1688 65.0891 61.1267 65.5269 61.1583 65.7378C61.2507 65.9936 61.3272 66.1439 61.3878 66.1887C61.6911 66.4129 61.7268 66.6502 61.4947 66.9008C61.4051 67.0221 61.3075 67.0907 61.202 67.1065C61.1493 67.1144 61.0095 67.0815 60.7827 67.0077ZM45.0564 51.1671C45.4784 51.1037 46.0414 50.7226 46.7454 50.0236C47.4415 49.272 48.0809 48.5018 48.6636 47.7132C48.3313 47.6553 47.8223 47.6777 47.1367 47.7807C46.5565 47.8678 46.008 48.1659 45.4912 48.6749C45.0271 49.176 44.7213 49.6534 44.5737 50.107C44.434 50.6134 44.5382 50.9483 44.8863 51.1117L44.8982 51.1908L45.0564 51.1671ZM112.016 36.6643C112.266 36.8964 112.249 37.1416 111.965 37.4001C110.878 38.4261 109.177 39.4905 106.862 40.5931C104.539 41.643 102.046 42.6376 99.3822 43.5768C96.7716 44.5081 94.1714 45.3299 91.5818 46.0423C88.9843 46.702 86.8417 47.1585 85.1539 47.4119C84.0464 47.5782 83.3712 47.5717 83.1286 47.3924C82.675 47.2448 82.3519 46.8888 82.1593 46.3245C82.0353 45.8577 82.0392 45.3448 82.1709 44.7857C82.3027 44.2266 82.4648 43.6899 82.6573 43.1756C82.9025 42.6534 83.1332 42.2143 83.3494 41.8583C83.5576 41.4495 83.6842 41.2147 83.729 41.1541C83.9531 40.8508 84.1865 40.7888 84.4291 40.9681C84.7166 41.0867 84.7786 41.3201 84.6152 41.6682C84.4807 41.8502 84.3093 42.1456 84.101 42.5544C83.9376 42.9025 83.7557 43.3073 83.5553 43.7689C83.3998 44.1697 83.2706 44.5666 83.1678 44.9596C83.065 45.3525 83.0638 45.7033 83.164 46.0118C83.1957 46.2228 83.3289 46.3916 83.5636 46.5181C83.8511 46.6367 84.6013 46.605 85.8144 46.4229C87.0723 46.1801 88.5557 45.8225 90.2645 45.3502C92.026 44.87 93.9379 44.3133 96.0001 43.6801C98.0623 43.0469 100.06 42.3425 101.993 41.5669C103.978 40.7834 105.798 39.9709 107.451 39.1294C109.105 38.2879 110.381 37.4491 111.28 36.613C111.512 36.3625 111.757 36.3796 112.016 36.6643ZM86.6912 36.0982C86.343 35.9348 86.2547 35.7054 86.426 35.41L88.6524 30.3028C88.8159 29.9547 89.0453 29.8663 89.3407 30.0377C89.6888 30.2011 89.7772 30.4305 89.6058 30.7259L87.3003 35.845C87.2186 36.019 87.0986 36.118 86.9404 36.1417C86.8876 36.1496 86.8349 36.1576 86.7822 36.1655C86.7742 36.1127 86.7439 36.0903 86.6912 36.0982ZM111.054 36.8087C111.423 36.7533 111.587 36.9445 111.545 37.3823C111.553 37.435 111.356 37.9229 110.956 38.846C110.555 39.769 109.794 41.5281 108.674 44.1232C109.573 43.2871 110.517 42.3904 111.506 41.4329C112.495 40.4755 113.443 39.6051 114.35 38.8218C115.257 38.0384 116.052 37.4067 116.735 36.9266C117.47 36.4386 118.053 36.1894 118.483 36.1787C118.921 36.2209 119.167 36.4265 119.223 36.7957C119.331 37.157 119.356 37.5038 119.298 37.8361C119.256 38.2739 119.259 38.651 119.306 38.9674C119.406 39.276 119.604 39.5159 119.9 39.6873C120.256 39.9035 120.837 40.0049 121.644 39.9916C122.451 39.9783 123.626 39.7211 125.169 39.2198C126.764 38.7106 128.825 37.8888 131.351 36.7545C133.877 35.6202 137.042 34.0664 140.844 32.0933C141.1 32.001 141.353 32.0708 141.604 32.3029C141.757 32.6035 141.683 32.8303 141.382 32.9833C137.129 35.1859 133.66 36.8663 130.976 38.0243C128.291 39.1824 126.147 39.9897 124.544 40.4462C122.94 40.9026 121.758 41.1072 120.996 41.0598C120.286 41.0045 119.749 40.8424 119.386 40.5735C118.795 40.2307 118.46 39.7956 118.381 39.2682C118.293 38.688 118.271 38.1791 118.313 37.7413C118.274 37.4776 118.276 37.3154 118.321 37.2547C117.643 37.4104 116.334 38.389 114.393 40.1904C112.453 41.9919 110.202 44.2443 107.642 46.9478C107.544 47.0164 107.416 47.0625 107.258 47.0863C107.1 47.1101 106.99 47.0995 106.93 47.0547C106.748 46.9202 106.69 46.7132 106.756 46.4337C107.148 45.4579 107.564 44.4517 108.001 43.4153C108.431 42.3261 108.824 41.3502 109.18 40.4878C109.536 39.6254 109.832 38.9068 110.069 38.3318C110.359 37.749 110.5 37.4312 110.493 37.3784C110.656 37.0303 110.843 36.8404 111.054 36.8087ZM146.059 32.4429C145.782 32.7541 145.464 33.1524 145.106 33.6377C144.739 34.0702 144.32 34.5107 143.848 34.9591C143.429 35.3995 143.006 35.8136 142.578 36.2014C142.143 36.5363 141.741 36.7315 141.372 36.787C141.003 36.8424 140.667 36.7581 140.363 36.534C139.635 35.9961 139.423 35.2999 139.726 34.4454C139.903 33.8256 140.294 33.2006 140.901 32.5702C141.499 31.8871 142.22 31.4822 143.064 31.3555C143.697 31.2605 144.18 31.242 144.512 31.2999C144.897 31.35 145.203 31.4119 145.43 31.4857C145.527 31.4171 145.572 31.3565 145.564 31.3037C145.609 31.2431 145.654 31.1824 145.699 31.1218C145.833 30.9398 145.988 30.8896 146.162 30.9714C146.32 30.9476 146.468 31.0333 146.605 31.2284C146.613 31.2812 146.731 31.533 146.961 31.9839C147.19 32.4349 147.56 32.9187 148.069 33.4355C148.57 33.8996 149.225 34.3135 150.035 34.6774C150.897 35.0333 151.961 35.1162 153.227 34.9261C154.546 34.7282 155.889 34.3377 157.258 33.7547C158.619 33.1189 159.843 32.4766 160.932 31.8277C162.066 31.1182 162.971 30.497 163.646 29.9642C164.374 29.4235 164.738 29.1531 164.738 29.1531C164.917 28.9105 165.136 28.9315 165.394 29.2163C165.698 29.4404 165.707 29.6817 165.422 29.9402C165.324 30.0088 164.912 30.3134 164.184 30.8542C163.456 31.3949 162.525 32.02 161.391 32.7296C160.25 33.3864 158.972 34.0366 157.559 34.6803C156.198 35.316 154.806 35.7408 153.382 35.9546C152.327 36.113 151.38 36.0933 150.541 35.8957C149.747 35.6373 149.051 35.3104 148.453 34.9149C147.854 34.5194 147.357 34.0817 146.961 33.6018C146.565 33.1219 146.265 32.7356 146.059 32.4429ZM140.968 35.715C140.968 35.715 141.025 35.7335 141.138 35.7704C141.56 35.707 142.123 35.3259 142.827 34.6269C143.524 33.8753 144.189 33.1012 144.825 32.3046C144.659 32.2757 144.444 32.281 144.18 32.3206C143.961 32.2995 143.641 32.3206 143.219 32.384C142.639 32.4711 142.09 32.7692 141.573 33.2782C141.109 33.7793 140.83 34.2527 140.735 34.6984C140.587 35.152 140.665 35.4909 140.968 35.715Z" fill="black"/>
</svg>
